<?xml version="1.0" encoding="utf-8"?>
<!-- Generator: Adobe Illustrator 19.1.0, SVG Export Plug-In . SVG Version: 6.00 Build 0)  -->
<svg version="1.1" id="Слой_3" xmlns="http://www.w3.org/2000/svg" xmlns:xlink="http://www.w3.org/1999/xlink" x="0px" y="0px"
	 viewBox="0 0 128 128" enable-background="new 0 0 128 128" xml:space="preserve">
<g>
	<path fill="#B8CBCD" d="M114.095,111.679c0,5.625-21.592,9.813-47.917,9.813c-26.326,0-47.418-4.188-47.418-9.813
		c0-5.626,21.341-10.188,47.667-10.188C92.752,101.491,114.095,106.053,114.095,111.679z"/>
	<path fill="#B2EDA6" d="M102.62,91.396c-15.744,0.918-20.083-22.081-35.827-21.165c6.852-14.368,13.705-28.735,20.557-43.104
		c15.745-0.917,20.082,22.082,35.827,21.166C116.326,62.66,109.473,77.028,102.62,91.396z"/>
	<path fill="#3C663E" d="M101.708,94.423c-8.681,0-14.282-6.157-19.223-11.591c-4.684-5.15-9.059-9.986-15.518-9.605
		c-1.065,0.055-2.072-0.44-2.664-1.321c-0.592-0.88-0.675-2.008-0.218-2.965l20.557-43.104c0.471-0.987,1.442-1.641,2.534-1.704
		c9.281-0.55,15.164,5.904,20.309,11.56c4.684,5.15,9.054,9.979,15.519,9.606c1.056-0.051,2.072,0.44,2.664,1.321
		c0.592,0.88,0.675,2.008,0.218,2.965l-20.558,43.104c-0.471,0.987-1.441,1.641-2.533,1.704
		C102.428,94.413,102.065,94.423,101.708,94.423z M71.377,67.59c6.656,1.429,11.341,6.58,15.547,11.205
		c4.257,4.681,8.29,9.115,13.81,9.587l17.86-37.447c-6.656-1.43-11.341-6.58-15.548-11.206c-4.256-4.68-8.29-9.115-13.81-9.587
		L71.377,67.59z"/>
	<path fill="#3C663E" d="M93.661,41.107c-2.676-2.062-5.621-3.564-9.128-3.883c1.223-2.565,2.446-5.13,3.669-7.694
		c3.508,0.319,6.453,1.82,9.129,3.883C96.107,35.977,94.884,38.542,93.661,41.107z"/>
	<path fill="#3C663E" d="M97.511,56.06c-2.435-2.569-4.843-5.195-7.519-7.259c1.223-2.564,2.446-5.13,3.668-7.693
		c2.677,2.063,5.085,4.688,7.521,7.258C99.957,50.931,98.734,53.495,97.511,56.06z"/>
	<path fill="#3C663E" d="M108.861,55.286c-2.784-1.838-5.246-4.352-7.68-6.921c1.223-2.563,2.445-5.128,3.669-7.693
		c2.435,2.569,4.896,5.082,7.68,6.921C111.308,50.157,110.084,52.723,108.861,55.286z"/>
	<path fill="#3C663E" d="M114.804,65.851c-3.723,0.131-6.828-1.033-9.611-2.871c1.223-2.563,2.446-5.129,3.669-7.693
		c2.783,1.837,5.89,3.002,9.612,2.871C117.25,60.722,116.027,63.286,114.804,65.851z"/>
	<path fill="#3C663E" d="M86.322,56.494c-2.676-2.062-5.621-3.563-9.129-3.883c1.223-2.565,2.446-5.128,3.67-7.692
		c3.508,0.318,6.453,1.82,9.129,3.882C88.769,51.364,87.546,53.93,86.322,56.494z"/>
	<path fill="#3C663E" d="M90.172,71.447c-2.435-2.571-4.843-5.196-7.52-7.258c1.223-2.566,2.446-5.132,3.669-7.695
		c2.677,2.063,5.085,4.688,7.52,7.259C92.619,66.318,91.395,68.883,90.172,71.447z"/>
	<path fill="#3C663E" d="M101.523,70.674c-2.784-1.838-5.246-4.351-7.681-6.921c1.223-2.564,2.446-5.128,3.669-7.693
		c2.435,2.569,4.897,5.083,7.681,6.92C103.968,65.545,102.745,68.109,101.523,70.674z"/>
	<path fill="#3C663E" d="M107.465,81.237c-3.724,0.133-6.829-1.033-9.613-2.869c1.224-2.564,2.447-5.129,3.67-7.694
		c2.783,1.838,5.889,3.002,9.611,2.87C109.911,76.108,108.688,78.674,107.465,81.237z"/>
	<path fill="#3C663E" d="M78.983,71.882c-2.677-2.063-5.621-3.563-9.129-3.883c1.223-2.565,2.446-5.129,3.669-7.693
		c3.508,0.318,6.453,1.82,9.129,3.884C81.43,66.754,80.206,69.317,78.983,71.882z"/>
	<path fill="#3C663E" d="M94.184,86.061c-2.783-1.839-5.245-4.352-7.68-6.921c1.223-2.565,2.446-5.13,3.669-7.693
		c2.435,2.569,4.897,5.081,7.68,6.921C96.63,80.933,95.407,83.497,94.184,86.061z"/>
	<path fill="#3C663E" d="M48.544,111.492c-0.433,0-0.873-0.095-1.29-0.293c-1.496-0.714-2.129-2.504-1.417-3.999l23.273-48.798
		c0.714-1.496,2.504-2.126,4-1.417c1.496,0.714,2.129,2.504,1.416,3.999l-23.273,48.798
		C50.739,110.861,49.664,111.492,48.544,111.492z"/>
	<path fill="#B2EDA6" d="M26.471,91.396c15.744,0.918,20.083-22.081,35.827-21.165c-6.852-14.368-13.705-28.735-20.557-43.104
		C25.996,26.21,21.658,49.209,5.913,48.293C12.766,62.66,19.619,77.028,26.471,91.396z"/>
	<path fill="#3C663E" d="M27.385,94.423c-0.001,0-0.001,0-0.002,0c-0.356,0-0.719-0.01-1.086-0.031
		c-1.092-0.063-2.062-0.717-2.533-1.704L3.205,49.584c-0.456-0.957-0.373-2.085,0.218-2.965c0.592-0.881,1.598-1.372,2.664-1.321
		c0.249,0.015,0.491,0.021,0.732,0.021c0.001,0,0.001,0,0.002,0c6.027-0.001,10.28-4.677,14.783-9.628
		c5.144-5.657,11.015-12.106,20.309-11.56c1.092,0.063,2.063,0.717,2.534,1.704l20.417,42.812c0.286,0.46,0.452,1.003,0.452,1.584
		c0,1.657-1.343,3-3,3c-0.006,0-0.013,0.001-0.02,0c-0.058,0-0.116-0.002-0.175-0.005c-6.461-0.379-10.833,4.455-15.518,9.605
		C41.665,88.266,36.064,94.423,27.385,94.423z M10.496,50.934l17.861,37.448c5.52-0.471,9.553-4.905,13.81-9.586
		c4.206-4.626,8.891-9.776,15.547-11.206L39.855,30.142c-5.52,0.472-9.554,4.907-13.81,9.587
		C21.838,44.353,17.153,49.505,10.496,50.934z"/>
	<path fill="#3C663E" d="M35.431,41.107c2.676-2.062,5.621-3.564,9.128-3.883c-1.223-2.565-2.446-5.13-3.669-7.694
		c-3.508,0.319-6.453,1.82-9.129,3.883C32.984,35.977,34.207,38.542,35.431,41.107z"/>
	<path fill="#3C663E" d="M31.58,56.06c2.435-2.569,4.843-5.195,7.519-7.259c-1.223-2.564-2.446-5.13-3.668-7.693
		c-2.677,2.063-5.085,4.688-7.521,7.258C29.134,50.931,30.357,53.495,31.58,56.06z"/>
	<path fill="#3C663E" d="M20.23,55.286c2.784-1.838,5.246-4.352,7.68-6.921c-1.223-2.563-2.445-5.128-3.669-7.693
		c-2.435,2.569-4.896,5.082-7.68,6.921C17.784,50.157,19.007,52.723,20.23,55.286z"/>
	<path fill="#3C663E" d="M14.288,65.851c3.723,0.131,6.828-1.033,9.611-2.871c-1.223-2.563-2.446-5.129-3.669-7.693
		c-2.783,1.837-5.89,3.002-9.612,2.871C11.841,60.722,13.064,63.286,14.288,65.851z"/>
	<path fill="#3C663E" d="M42.769,56.494c2.676-2.062,5.621-3.563,9.129-3.883c-1.223-2.565-2.446-5.128-3.669-7.692
		c-3.508,0.318-6.453,1.82-9.129,3.882C40.322,51.364,41.545,53.93,42.769,56.494z"/>
	<path fill="#3C663E" d="M38.919,71.447c2.435-2.571,4.843-5.196,7.519-7.258c-1.223-2.566-2.446-5.132-3.669-7.695
		c-2.677,2.063-5.085,4.688-7.52,7.259C36.473,66.318,37.696,68.883,38.919,71.447z"/>
	<path fill="#3C663E" d="M27.568,70.674c2.784-1.838,5.246-4.351,7.681-6.921c-1.223-2.564-2.446-5.128-3.669-7.693
		c-2.434,2.569-4.896,5.083-7.681,6.92C25.123,65.545,26.346,68.109,27.568,70.674z"/>
	<path fill="#3C663E" d="M21.626,81.237c3.724,0.133,6.829-1.033,9.613-2.869c-1.224-2.564-2.447-5.129-3.67-7.694
		c-2.783,1.838-5.889,3.002-9.611,2.87C19.18,76.108,20.403,78.674,21.626,81.237z"/>
	<path fill="#3C663E" d="M50.108,71.882c2.677-2.063,5.621-3.563,9.129-3.883c-1.223-2.565-2.446-5.129-3.669-7.693
		c-3.508,0.318-6.453,1.82-9.129,3.884C47.662,66.754,48.885,69.317,50.108,71.882z"/>
	<path fill="#3C663E" d="M34.908,86.061c2.783-1.839,5.245-4.352,7.68-6.921c-1.223-2.565-2.446-5.13-3.669-7.693
		c-2.435,2.569-4.897,5.081-7.68,6.921C32.461,80.933,33.684,83.497,34.908,86.061z"/>
	<path fill="#3C663E" d="M80.547,111.492c-1.12,0-2.195-0.631-2.71-1.71L54.564,60.984c-0.713-1.495-0.079-3.285,1.417-3.999
		c1.495-0.711,3.286-0.08,4,1.417L83.253,107.2c0.713,1.495,0.079,3.285-1.417,3.999C81.42,111.397,80.98,111.492,80.547,111.492z"
		/>
</g>
</svg>
