<?xml version="1.0" encoding="utf-8"?>
<!-- Generator: Adobe Illustrator 16.0.0, SVG Export Plug-In . SVG Version: 6.00 Build 0)  -->
<!DOCTYPE svg PUBLIC "-//W3C//DTD SVG 1.1//EN" "http://www.w3.org/Graphics/SVG/1.1/DTD/svg11.dtd">
<svg version="1.1" id="Livello_1" xmlns="http://www.w3.org/2000/svg" xmlns:xlink="http://www.w3.org/1999/xlink" x="0px" y="0px"
	 width="100px" height="100px" viewBox="0 0 100 100" enable-background="new 0 0 100 100" xml:space="preserve">
<rect fill="none" width="100" height="100"/>
<g>
	<path d="M35.76,21.701c0-1.051,0-2.102,0-3.153c-1.052,0.144-2.103,0.37-3.153,0.695c0,1.051,0,2.102,0,3.153
		C33.657,22.071,34.708,21.845,35.76,21.701z"/>
	<path d="M38.912,18.35c0-1.051,0-2.102,0-3.153l0,0c-0.016,0-0.032,0-0.049,0c-0.041,0-0.083-0.001-0.126-0.001
		c-0.023,0.001-0.047,0.001-0.07,0.001c-0.039,0-0.077,0-0.116,0c-0.024,0-0.05,0.001-0.074,0.001c-0.037,0-0.076,0.001-0.113,0.002
		c-0.024,0-0.05,0-0.074,0.001c-0.039,0.001-0.077,0.002-0.116,0.003c-0.023,0-0.047,0.001-0.07,0.001
		c-0.043,0.001-0.085,0.003-0.127,0.004c-0.02,0-0.04,0.001-0.06,0.001c-0.124,0.005-0.248,0.01-0.372,0.017
		c-0.02,0.001-0.039,0.002-0.06,0.003c-0.042,0.002-0.084,0.005-0.126,0.007c-0.023,0.001-0.048,0.002-0.071,0.004
		c-0.038,0.002-0.077,0.005-0.115,0.008c-0.024,0.002-0.05,0.003-0.075,0.005c-0.037,0.003-0.075,0.005-0.112,0.008
		c-0.025,0.002-0.05,0.004-0.075,0.006c-0.038,0.003-0.077,0.006-0.115,0.009c-0.023,0.002-0.048,0.004-0.071,0.007
		c-0.042,0.003-0.084,0.007-0.126,0.011c-0.021,0.002-0.04,0.004-0.061,0.005c-0.124,0.013-0.247,0.026-0.371,0.041
		c-0.02,0.002-0.04,0.005-0.06,0.007c-0.042,0.005-0.085,0.009-0.127,0.015c-0.023,0.003-0.047,0.006-0.069,0.009
		c-0.04,0.005-0.079,0.01-0.117,0.016c-0.011,0.001-0.021,0.002-0.032,0.004v0.001c0,1.05,0,2.101,0,3.152
		C36.811,18.404,37.861,18.344,38.912,18.35z"/>
	<path d="M42.065,21.701c0-1.051,0-2.102,0-3.153c-1.052-0.121-2.103-0.192-3.153-0.198c0,1.051,0,2.102,0,3.153
		C39.963,21.508,41.014,21.58,42.065,21.701z"/>
	<path d="M45.219,15.892L45.219,15.892c-0.012-0.002-0.023-0.004-0.035-0.006c-0.037-0.007-0.072-0.015-0.109-0.021
		c-0.025-0.005-0.051-0.01-0.077-0.015c-0.039-0.007-0.079-0.015-0.118-0.022c-0.022-0.004-0.045-0.008-0.067-0.013
		c-0.057-0.011-0.114-0.021-0.171-0.032c-0.01-0.002-0.018-0.003-0.026-0.005c-0.058-0.01-0.114-0.021-0.172-0.03
		c-0.021-0.004-0.043-0.008-0.064-0.012c-0.041-0.007-0.081-0.014-0.122-0.021c-0.024-0.004-0.049-0.008-0.073-0.012
		c-0.038-0.007-0.075-0.013-0.113-0.019c-0.025-0.005-0.051-0.009-0.076-0.013c-0.037-0.006-0.074-0.012-0.111-0.019
		c-0.025-0.004-0.051-0.009-0.076-0.013c-0.038-0.006-0.076-0.012-0.113-0.018c-0.024-0.004-0.049-0.008-0.073-0.012
		c-0.041-0.006-0.083-0.013-0.124-0.02c-0.021-0.003-0.041-0.006-0.062-0.009c-0.124-0.019-0.248-0.038-0.372-0.055
		c-0.019-0.003-0.039-0.006-0.058-0.008c-0.043-0.006-0.086-0.012-0.128-0.018c-0.023-0.003-0.047-0.006-0.07-0.009
		c-0.039-0.006-0.078-0.011-0.116-0.016c-0.025-0.003-0.05-0.007-0.074-0.01c-0.038-0.005-0.076-0.01-0.114-0.015
		c-0.024-0.003-0.049-0.006-0.073-0.009c-0.04-0.005-0.078-0.01-0.117-0.015c-0.023-0.003-0.047-0.006-0.069-0.008
		c-0.043-0.005-0.086-0.011-0.13-0.016c-0.015-0.001-0.03-0.003-0.046-0.005l0,0c0,1.051,0,2.102,0,3.153
		c1.051,0.122,2.102,0.292,3.153,0.497C45.219,17.994,45.219,16.942,45.219,15.892z"/>
	<path d="M48.371,22.893c0-1.051,0-2.102,0-3.153c-1.051-0.254-2.103-0.491-3.152-0.695c0,1.051,0,2.102,0,3.153
		C46.269,22.401,47.32,22.638,48.371,22.893z"/>
	<path d="M51.524,17.38c-0.009-0.001-0.016-0.003-0.023-0.006c-0.115-0.029-0.23-0.059-0.347-0.088
		c-0.014-0.004-0.029-0.008-0.043-0.012c-0.116-0.03-0.232-0.059-0.349-0.089c-0.015-0.004-0.029-0.008-0.044-0.012
		c-0.12-0.03-0.239-0.061-0.359-0.091c-0.009-0.002-0.017-0.004-0.025-0.007c-0.126-0.032-0.252-0.064-0.378-0.096
		c-0.007-0.002-0.015-0.003-0.021-0.006c-0.121-0.03-0.242-0.061-0.362-0.091c-0.013-0.003-0.024-0.006-0.037-0.01
		c-0.119-0.03-0.237-0.059-0.356-0.088c-0.011-0.002-0.021-0.005-0.031-0.008c-0.254-0.063-0.509-0.125-0.764-0.187
		c-0.004-0.001-0.008-0.002-0.013-0.004l0,0c0,1.052,0,2.103,0,3.154c1.052,0.253,2.102,0.524,3.153,0.794
		C51.524,19.482,51.524,18.432,51.524,17.38z"/>
	<path d="M54.678,24.48c0-1.05,0-2.102,0-3.152c-1.052-0.254-2.103-0.524-3.153-0.794c0,1.05,0,2.102,0,3.152
		C52.575,23.957,53.626,24.227,54.678,24.48z"/>
	<path d="M57.83,18.87c-0.007-0.001-0.013-0.002-0.02-0.004c-0.119-0.023-0.237-0.046-0.356-0.07
		c-0.011-0.002-0.021-0.005-0.031-0.007c-0.254-0.051-0.509-0.104-0.764-0.16c-0.01-0.002-0.02-0.004-0.03-0.006
		c-0.119-0.026-0.238-0.052-0.357-0.079c-0.012-0.003-0.022-0.005-0.035-0.008c-0.122-0.027-0.244-0.055-0.367-0.083
		c-0.005-0.001-0.01-0.002-0.016-0.003c-0.128-0.029-0.256-0.059-0.384-0.088c-0.005-0.001-0.01-0.002-0.014-0.003
		c-0.124-0.029-0.248-0.058-0.371-0.087c-0.01-0.002-0.021-0.004-0.03-0.007c-0.121-0.029-0.243-0.059-0.364-0.087
		c-0.004-0.001-0.009-0.002-0.013-0.003c0,1.051,0,2.102,0,3.153c1.051,0.254,2.102,0.491,3.152,0.695
		C57.83,20.972,57.83,19.921,57.83,18.87z"/>
	<path d="M60.983,25.672c0-1.051,0-2.102,0-3.153c-1.051-0.121-2.103-0.292-3.153-0.496c0,1.051,0,2.102,0,3.153
		C58.881,25.38,59.933,25.551,60.983,25.672z"/>
	<path d="M35.76,24.854c-1.052,0.144-2.103,0.37-3.153,0.695c0,1.051,0,2.102,0,3.153c1.051-0.325,2.102-0.551,3.153-0.694
		C35.76,26.956,35.76,25.905,35.76,24.854z"/>
	<path d="M38.912,24.655c0-1.05,0-2.102,0-3.152c-1.051-0.006-2.102,0.055-3.152,0.198c0,1.051,0,2.102,0,3.153
		C36.811,24.71,37.861,24.65,38.912,24.655z"/>
	<path d="M42.065,28.007c0-1.051,0-2.102,0-3.153c-1.052-0.121-2.103-0.193-3.153-0.199c0,1.052,0,2.102,0,3.153
		C39.963,27.813,41.014,27.885,42.065,28.007z"/>
	<path d="M45.219,25.351c0-1.051,0-2.102,0-3.153c-1.052-0.204-2.103-0.375-3.153-0.496c0,1.051,0,2.102,0,3.153
		C43.116,24.975,44.167,25.146,45.219,25.351z"/>
	<path d="M48.371,29.198c0-1.051,0-2.102,0-3.153c-1.051-0.253-2.103-0.491-3.152-0.695c0,1.051,0,2.102,0,3.153
		C46.269,28.707,47.32,28.945,48.371,29.198z"/>
	<path d="M51.524,26.84c0-1.052,0-2.102,0-3.154c-1.052-0.27-2.102-0.54-3.153-0.793c0,1.051,0,2.102,0,3.153
		C49.423,26.299,50.473,26.569,51.524,26.84z"/>
	<path d="M54.678,30.787c0-1.051,0-2.102,0-3.152c-1.052-0.254-2.103-0.524-3.153-0.794c0,1.05,0,2.102,0,3.152
		C52.575,30.262,53.626,30.533,54.678,30.787z"/>
	<path d="M57.83,28.329c0-1.051,0-2.102,0-3.153c-1.051-0.204-2.102-0.441-3.152-0.695c0,1.052,0,2.102,0,3.154
		C55.729,27.888,56.779,28.125,57.83,28.329z"/>
	<path d="M60.983,31.978c0-1.051,0-2.102,0-3.153c-1.051-0.122-2.103-0.292-3.153-0.497c0,1.051,0,2.102,0,3.153
		C58.881,31.686,59.933,31.857,60.983,31.978z"/>
	<path d="M35.76,31.16c-1.052,0.144-2.103,0.37-3.153,0.695c0,1.051,0,2.102,0,3.153c1.051-0.326,2.102-0.552,3.153-0.695
		C35.76,33.262,35.76,32.211,35.76,31.16z"/>
	<path d="M38.912,30.961c0-1.05,0-2.102,0-3.152c-1.051-0.006-2.102,0.055-3.152,0.199c0,1.05,0,2.102,0,3.152
		C36.811,31.016,37.861,30.957,38.912,30.961z"/>
	<path d="M38.912,30.961c0,1.052,0,2.102,0,3.154c1.051,0.005,2.102,0.076,3.153,0.198c0-1.051,0-2.102,0-3.153
		C41.014,31.039,39.963,30.967,38.912,30.961z"/>
	<path d="M45.219,31.656c0-1.051,0-2.102,0-3.153c-1.052-0.204-2.103-0.375-3.153-0.496c0,1.05,0,2.102,0,3.152
		C43.116,31.282,44.167,31.452,45.219,31.656z"/>
	<path d="M45.219,31.656c0,1.051,0,2.102,0,3.153c1.05,0.204,2.102,0.441,3.152,0.694c0-1.051,0-2.102,0-3.153
		C47.32,32.098,46.269,31.861,45.219,31.656z"/>
	<path d="M51.524,33.146c0-1.051,0-2.102,0-3.153c-1.052-0.27-2.102-0.54-3.153-0.794c0,1.051,0,2.102,0,3.153
		C49.423,32.605,50.473,32.875,51.524,33.146z"/>
	<path d="M51.524,33.146c0,1.051,0,2.102,0,3.153c1.051,0.27,2.102,0.54,3.153,0.794c0-1.05,0-2.102,0-3.152
		C53.626,33.687,52.575,33.416,51.524,33.146z"/>
	<path d="M57.83,34.635c0-1.051,0-2.102,0-3.153c-1.051-0.204-2.102-0.441-3.152-0.695c0,1.051,0,2.102,0,3.153
		C55.729,34.193,56.779,34.431,57.83,34.635z"/>
	<path d="M57.83,37.787c1.051,0.205,2.103,0.376,3.153,0.497c0-1.051,0-2.102,0-3.153c-1.051-0.122-2.103-0.292-3.153-0.496
		C57.83,35.686,57.83,36.737,57.83,37.787z"/>
	<path d="M64.136,19.565c-0.003,0-0.007,0-0.01,0c-0.125-0.001-0.25-0.002-0.374-0.005c-0.019,0-0.037-0.001-0.056-0.001
		c-0.044-0.001-0.087-0.002-0.13-0.004c-0.023,0-0.046-0.001-0.069-0.002c-0.039-0.001-0.078-0.002-0.118-0.004
		c-0.024,0-0.048-0.001-0.072-0.002c-0.038-0.001-0.077-0.003-0.115-0.005c-0.024-0.001-0.048-0.001-0.073-0.003
		c-0.038-0.001-0.078-0.003-0.117-0.005c-0.023-0.001-0.046-0.002-0.069-0.003c-0.043-0.002-0.085-0.005-0.128-0.007
		c-0.02,0-0.039-0.001-0.058-0.002c-0.125-0.007-0.249-0.015-0.373-0.024c-0.019-0.001-0.039-0.003-0.058-0.004
		c-0.043-0.003-0.086-0.006-0.128-0.01c-0.023-0.001-0.047-0.003-0.069-0.005c-0.04-0.003-0.079-0.007-0.118-0.01
		c-0.024-0.001-0.049-0.004-0.073-0.006c-0.038-0.003-0.076-0.006-0.114-0.01c-0.024-0.002-0.049-0.005-0.073-0.006
		c-0.039-0.004-0.078-0.008-0.118-0.011c-0.022-0.002-0.045-0.004-0.068-0.006c-0.044-0.005-0.087-0.009-0.131-0.013
		c-0.019-0.002-0.037-0.003-0.056-0.006c-0.124-0.013-0.248-0.026-0.373-0.041c-0.004,0-0.007-0.001-0.01-0.001
		c0,1.051,0,2.102,0,3.153c1.051,0.122,2.102,0.193,3.152,0.199C64.136,21.667,64.136,20.616,64.136,19.565z"/>
	<path d="M67.289,25.672c0-1.051,0-2.102,0-3.153c-1.051,0.143-2.103,0.204-3.153,0.199c0,1.051,0,2.102,0,3.153
		C65.187,25.876,66.238,25.816,67.289,25.672z"/>
	<path d="M64.136,29.023c0-1.051,0-2.102,0-3.153c-1.051-0.006-2.102-0.077-3.152-0.198c0,1.051,0,2.102,0,3.153
		C62.034,28.946,63.085,29.018,64.136,29.023z"/>
	<path d="M64.136,29.023c0,1.051,0,2.102,0,3.153c1.051,0.006,2.103-0.055,3.153-0.199c0-1.051,0-2.102,0-3.153
		C66.238,28.969,65.187,29.029,64.136,29.023z"/>
	<path d="M60.983,35.131c1.051,0.122,2.102,0.193,3.152,0.199c0-1.051,0-2.102,0-3.153c-1.051-0.005-2.102-0.077-3.152-0.199
		C60.983,33.029,60.983,34.08,60.983,35.131z"/>
	<path d="M64.136,35.33c0,1.051,0,2.102,0,3.153c1.051,0.006,2.103-0.055,3.153-0.199c0-1.051,0-2.102,0-3.153
		C66.238,35.274,65.187,35.335,64.136,35.33z"/>
	<path d="M70.441,18.671c-0.017,0.005-0.033,0.01-0.05,0.016c-0.038,0.011-0.076,0.022-0.113,0.035
		c-0.025,0.007-0.051,0.014-0.076,0.022c-0.037,0.011-0.075,0.022-0.112,0.033c-0.024,0.007-0.05,0.015-0.075,0.022
		c-0.038,0.011-0.076,0.021-0.115,0.032c-0.023,0.006-0.048,0.013-0.071,0.019c-0.042,0.012-0.084,0.023-0.127,0.035
		c-0.019,0.005-0.039,0.011-0.059,0.016c-0.124,0.032-0.248,0.064-0.372,0.094c-0.02,0.005-0.039,0.009-0.059,0.014
		c-0.042,0.01-0.085,0.021-0.128,0.03c-0.023,0.006-0.047,0.011-0.069,0.016c-0.039,0.009-0.078,0.017-0.117,0.026
		c-0.024,0.005-0.049,0.011-0.073,0.016c-0.038,0.008-0.076,0.017-0.114,0.024c-0.025,0.006-0.05,0.011-0.074,0.015
		c-0.039,0.009-0.077,0.017-0.116,0.024c-0.023,0.005-0.047,0.01-0.07,0.015c-0.042,0.008-0.085,0.016-0.127,0.024
		c-0.021,0.003-0.04,0.008-0.059,0.011c-0.125,0.023-0.249,0.045-0.372,0.066c-0.021,0.003-0.04,0.006-0.061,0.01
		c-0.042,0.006-0.084,0.013-0.126,0.02c-0.023,0.004-0.048,0.007-0.071,0.011c-0.039,0.006-0.077,0.012-0.114,0.018
		c-0.026,0.003-0.051,0.008-0.076,0.011c-0.037,0.005-0.075,0.01-0.112,0.016c-0.014,0.002-0.027,0.003-0.042,0.006
		c0,1.051,0,2.102,0,3.153c1.051-0.144,2.102-0.37,3.152-0.695C70.441,20.773,70.441,19.722,70.441,18.671z"/>
	<path d="M73.595,23.686c0-1.05,0-2.102,0-3.152c-1.051,0.54-2.102,0.965-3.153,1.29c0,1.051,0,2.102,0,3.153
		C71.493,24.652,72.544,24.227,73.595,23.686z"/>
	<path d="M67.289,25.672c0,1.051,0,2.102,0,3.153c1.051-0.143,2.102-0.369,3.152-0.695c0-1.051,0-2.103,0-3.153
		C69.391,25.303,68.34,25.529,67.289,25.672z"/>
	<path d="M73.595,29.992c0-1.05,0-2.102,0-3.152c-1.051,0.541-2.102,0.965-3.153,1.291c0,1.051,0,2.102,0,3.152
		C71.493,30.958,72.544,30.533,73.595,29.992z"/>
	<path d="M67.289,35.131c1.051-0.143,2.102-0.369,3.152-0.694c0-1.052,0-2.102,0-3.154c-1.051,0.326-2.102,0.552-3.152,0.695
		C67.289,33.029,67.289,34.08,67.289,35.131z"/>
	<path d="M73.595,36.298c0-1.051,0-2.102,0-3.153c-1.051,0.541-2.102,0.965-3.153,1.291c0,1.05,0,2.102,0,3.152
		C71.493,37.263,72.544,36.838,73.595,36.298z"/>
	<path d="M32.606,38.161c0,1.051,0,2.102,0,3.153c1.051-0.325,2.102-0.552,3.153-0.695c0-1.051,0-2.102,0-3.153
		C34.708,37.609,33.657,37.835,32.606,38.161z"/>
	<path d="M35.76,34.313c0,1.051,0,2.102,0,3.152c1.051-0.143,2.102-0.203,3.152-0.198c0-1.051,0-2.102,0-3.152
		C37.861,34.108,36.811,34.169,35.76,34.313z"/>
	<path d="M38.912,37.267c0,1.051,0,2.102,0,3.153c1.051,0.006,2.102,0.077,3.153,0.198c0-1.051,0-2.102,0-3.153
		C41.014,37.345,39.963,37.273,38.912,37.267z"/>
	<path d="M42.065,34.313c0,1.051,0,2.102,0,3.152c1.051,0.122,2.102,0.292,3.153,0.497c0-1.05,0-2.102,0-3.152
		C44.167,34.605,43.116,34.434,42.065,34.313z"/>
	<path d="M45.219,37.962c0,1.052,0,2.102,0,3.154c1.05,0.203,2.102,0.44,3.152,0.694c0-1.051,0-2.102,0-3.153
		C47.32,38.403,46.269,38.167,45.219,37.962z"/>
	<path d="M48.371,35.504c0,1.051,0,2.102,0,3.153c1.052,0.253,2.102,0.524,3.153,0.794c0-1.051,0-2.102,0-3.153
		C50.473,36.028,49.423,35.758,48.371,35.504z"/>
	<path d="M51.524,39.451c0,1.051,0,2.102,0,3.153c1.051,0.271,2.102,0.54,3.153,0.795c0-1.051,0-2.103,0-3.153
		C53.626,39.992,52.575,39.722,51.524,39.451z"/>
	<path d="M54.678,37.092c0,1.052,0,2.102,0,3.153c1.051,0.254,2.102,0.49,3.152,0.695c0-1.052,0-2.102,0-3.154
		C56.779,37.584,55.729,37.347,54.678,37.092z"/>
	<path d="M57.83,40.941c0,1.05,0,2.102,0,3.152c1.051,0.204,2.103,0.375,3.153,0.496c0-1.05,0-2.102,0-3.152
		C59.933,41.315,58.881,41.144,57.83,40.941z"/>
	<path d="M60.983,41.437c1.051,0.121,2.102,0.192,3.152,0.199c0-1.052,0-2.103,0-3.154c-1.051-0.005-2.102-0.077-3.152-0.199
		C60.983,39.335,60.983,40.385,60.983,41.437z"/>
	<path d="M64.136,41.636c0,1.05,0,2.102,0,3.152c1.051,0.006,2.103-0.056,3.153-0.199c0-1.05,0-2.102,0-3.152
		C66.238,41.581,65.187,41.641,64.136,41.636z"/>
	<path d="M67.289,41.437c1.051-0.144,2.102-0.369,3.152-0.694c0-1.052,0-2.103,0-3.154c-1.051,0.325-2.102,0.551-3.152,0.695
		C67.289,39.335,67.289,40.385,67.289,41.437z"/>
	<path d="M73.595,42.604c0-1.051,0-2.102,0-3.153c-1.051,0.541-2.102,0.965-3.153,1.292c0,1.05,0,2.102,0,3.151
		C71.493,43.569,72.544,43.144,73.595,42.604z"/>
	<path d="M30.331,42.18v-3.153c0.758-0.345,1.517-0.631,2.275-0.866c0-1.05,0-2.102,0-3.152c-0.758,0.234-1.517,0.521-2.275,0.866
		v-3.153c0.758-0.344,1.517-0.631,2.275-0.866c0-1.051,0-2.102,0-3.153c-0.758,0.235-1.517,0.522-2.275,0.866v-3.153
		c0.758-0.345,1.517-0.632,2.275-0.866c0-1.051,0-2.102,0-3.153c-0.758,0.235-1.517,0.521-2.275,0.866v-3.153
		c0.758-0.345,1.517-0.632,2.275-0.866c0-1.051,0-2.102,0-3.153l0,0c-0.007,0.001-0.015,0.004-0.022,0.006
		c-0.042,0.013-0.084,0.027-0.127,0.041c-0.019,0.006-0.039,0.012-0.059,0.019c-0.124,0.04-0.248,0.081-0.372,0.124
		c-0.02,0.007-0.039,0.014-0.059,0.021c-0.043,0.015-0.085,0.03-0.127,0.045c-0.023,0.008-0.047,0.017-0.07,0.025
		c-0.039,0.014-0.078,0.028-0.117,0.042c-0.024,0.01-0.049,0.019-0.073,0.027c-0.039,0.015-0.076,0.029-0.114,0.043
		c-0.024,0.009-0.049,0.019-0.074,0.028c-0.039,0.015-0.078,0.031-0.117,0.045c-0.023,0.009-0.046,0.019-0.07,0.028
		c-0.042,0.017-0.085,0.034-0.127,0.051c-0.02,0.008-0.04,0.016-0.059,0.024c-0.124,0.051-0.249,0.103-0.372,0.157
		c-0.02,0.008-0.039,0.017-0.06,0.026c-0.042,0.018-0.084,0.037-0.126,0.056c-0.023,0.01-0.047,0.021-0.071,0.032
		c-0.02,0.009-0.04,0.018-0.059,0.027v-0.001v-2.785c0-0.725-0.588-1.313-1.313-1.313h-1.3c-0.725,0-1.313,0.588-1.313,1.313V85.83
		c0,0.725,0.588,1.313,1.313,1.313h1.3c0.725,0,1.313-0.588,1.313-1.313V48.486v-3.153c0.758-0.345,1.517-0.631,2.275-0.866
		c0-1.051,0-2.102,0-3.152C31.848,41.548,31.089,41.835,30.331,42.18z"/>
	<path d="M32.606,47.62c0.016-0.005,0.033-0.01,0.049-0.016c0.039-0.011,0.077-0.022,0.115-0.034
		c0.025-0.008,0.05-0.015,0.075-0.022c0.038-0.012,0.075-0.022,0.113-0.033c0.024-0.007,0.05-0.014,0.074-0.021
		c0.038-0.011,0.077-0.021,0.116-0.032c0.023-0.007,0.047-0.013,0.07-0.02c0.043-0.012,0.085-0.023,0.128-0.034
		c0.019-0.005,0.039-0.011,0.058-0.016c0.125-0.032,0.248-0.064,0.373-0.095c0.019-0.004,0.038-0.008,0.058-0.013
		c0.043-0.011,0.086-0.021,0.128-0.03c0.023-0.006,0.047-0.011,0.069-0.017c0.039-0.008,0.079-0.018,0.118-0.026
		c0.024-0.005,0.048-0.011,0.072-0.016c0.039-0.008,0.077-0.017,0.115-0.024c0.024-0.005,0.049-0.01,0.073-0.015
		c0.039-0.009,0.078-0.017,0.118-0.024c0.022-0.004,0.045-0.009,0.068-0.014c0.043-0.009,0.086-0.017,0.13-0.025
		c0.019-0.004,0.038-0.007,0.057-0.011c0.124-0.022,0.248-0.045,0.372-0.065c0.02-0.003,0.038-0.007,0.058-0.01
		c0.043-0.007,0.086-0.014,0.129-0.021c0.023-0.004,0.046-0.007,0.069-0.011c0.039-0.006,0.078-0.012,0.118-0.018
		c0.023-0.004,0.048-0.008,0.072-0.011c0.038-0.005,0.077-0.011,0.115-0.016c0.013-0.003,0.026-0.005,0.041-0.007
		c0-1.051,0-2.102,0-3.153c-1.052,0.144-2.103,0.37-3.153,0.695C32.606,45.518,32.606,46.568,32.606,47.62z"/>
	<path d="M35.76,40.619c0,1.051,0,2.103,0,3.152c1.051-0.143,2.102-0.203,3.152-0.197c0-1.052,0-2.103,0-3.153
		C37.861,40.415,36.811,40.475,35.76,40.619z"/>
	<path d="M38.912,46.726c0.004,0,0.008,0,0.012,0c0.124,0.001,0.247,0.003,0.371,0.005c0.021,0.001,0.041,0.001,0.062,0.001
		c0.042,0.001,0.083,0.003,0.125,0.004c0.023,0,0.048,0.001,0.072,0.002c0.038,0.001,0.076,0.002,0.114,0.004
		c0.024,0,0.05,0.001,0.075,0.003c0.037,0.001,0.074,0.002,0.111,0.004c0.026,0.001,0.051,0.002,0.077,0.003
		c0.037,0.002,0.075,0.004,0.113,0.006c0.024,0.001,0.049,0.002,0.072,0.004c0.042,0.001,0.082,0.003,0.123,0.006
		c0.021,0.001,0.042,0.002,0.063,0.003c0.059,0.004,0.117,0.008,0.177,0.011c0.006,0.001,0.012,0.002,0.017,0.002
		c0.059,0.003,0.118,0.008,0.177,0.012c0.021,0.001,0.043,0.004,0.064,0.005c0.041,0.003,0.081,0.006,0.122,0.009
		c0.024,0.002,0.049,0.004,0.073,0.006c0.038,0.003,0.075,0.006,0.113,0.009c0.025,0.003,0.051,0.005,0.077,0.007
		c0.037,0.003,0.073,0.007,0.11,0.011c0.025,0.001,0.051,0.004,0.076,0.006c0.038,0.003,0.076,0.007,0.114,0.011
		c0.023,0.002,0.048,0.005,0.072,0.007c0.042,0.005,0.084,0.009,0.125,0.013c0.021,0.002,0.04,0.004,0.061,0.007
		c0.124,0.012,0.248,0.026,0.372,0.04c0.004,0,0.007,0.001,0.011,0.001c0-1.051,0-2.102,0-3.153
		c-1.052-0.12-2.103-0.192-3.153-0.197C38.912,44.625,38.912,45.675,38.912,46.726z"/>
	<path d="M42.065,40.619c0,1.051,0,2.103,0,3.152c1.051,0.122,2.102,0.293,3.153,0.497c0-1.051,0-2.103,0-3.152
		C44.167,40.911,43.116,40.74,42.065,40.619z"/>
	<path d="M45.219,47.421c0.007,0.001,0.014,0.002,0.021,0.004c0.118,0.022,0.235,0.046,0.353,0.07
		c0.012,0.002,0.023,0.004,0.035,0.007c0.125,0.025,0.251,0.051,0.376,0.077c0.003,0,0.005,0.001,0.007,0.001
		c0.126,0.026,0.251,0.053,0.376,0.08c0.013,0.002,0.024,0.005,0.037,0.008c0.116,0.025,0.233,0.051,0.351,0.077
		c0.014,0.002,0.027,0.006,0.041,0.009c0.12,0.026,0.238,0.054,0.357,0.08c0.009,0.002,0.018,0.004,0.026,0.006
		c0.125,0.028,0.251,0.058,0.377,0.087c0.008,0.002,0.017,0.004,0.024,0.006c0.12,0.027,0.24,0.056,0.359,0.084
		c0.014,0.004,0.026,0.007,0.04,0.01c0.118,0.028,0.236,0.056,0.355,0.085c0.005,0.002,0.011,0.003,0.017,0.005
		c0-1.052,0-2.103,0-3.154c-1.051-0.253-2.103-0.49-3.152-0.694C45.219,45.319,45.219,46.37,45.219,47.421z"/>
	<path d="M48.371,41.81c0,1.051,0,2.103,0,3.152c1.052,0.254,2.102,0.524,3.153,0.795c0-1.051,0-2.103,0-3.153
		C50.473,42.333,49.423,42.064,48.371,41.81z"/>
	<path d="M51.524,48.91c0.128,0.033,0.256,0.066,0.384,0.099c0.006,0.002,0.012,0.004,0.018,0.005
		c0.123,0.031,0.245,0.063,0.368,0.095c0.01,0.003,0.021,0.005,0.03,0.008c0.124,0.032,0.248,0.063,0.373,0.096
		c0.004,0.001,0.009,0.002,0.014,0.003c0.128,0.032,0.256,0.065,0.385,0.099c0.004,0,0.009,0.001,0.013,0.003
		c0.124,0.031,0.248,0.062,0.371,0.093c0.011,0.003,0.021,0.006,0.03,0.008c0.121,0.03,0.243,0.062,0.364,0.091
		c0.008,0.002,0.016,0.004,0.023,0.006c0.257,0.063,0.514,0.127,0.77,0.188c0.004,0.001,0.007,0.002,0.011,0.003l0,0
		c0-1.051,0-2.103,0-3.153c-1.052-0.253-2.103-0.523-3.153-0.794C51.524,46.808,51.524,47.859,51.524,48.91z"/>
	<path d="M54.678,43.399c0,1.051,0,2.102,0,3.152c1.051,0.254,2.102,0.491,3.152,0.695c0-1.052,0-2.102,0-3.153
		C56.779,43.89,55.729,43.652,54.678,43.399z"/>
	<path d="M57.83,50.399L57.83,50.399c0.011,0.002,0.021,0.005,0.031,0.007c0.039,0.008,0.079,0.015,0.118,0.021
		c0.023,0.005,0.046,0.01,0.068,0.014c0.044,0.008,0.087,0.017,0.13,0.025c0.02,0.003,0.038,0.007,0.057,0.01
		c0.125,0.023,0.249,0.046,0.373,0.067c0.019,0.004,0.037,0.008,0.057,0.011c0.043,0.008,0.086,0.015,0.13,0.022
		c0.022,0.004,0.045,0.008,0.068,0.012c0.039,0.007,0.079,0.014,0.118,0.02c0.024,0.005,0.049,0.009,0.072,0.013
		c0.038,0.007,0.077,0.013,0.116,0.02c0.023,0.004,0.048,0.008,0.071,0.012c0.04,0.007,0.079,0.013,0.119,0.02
		c0.022,0.003,0.045,0.007,0.068,0.011c0.043,0.006,0.087,0.014,0.131,0.021c0.019,0.003,0.037,0.006,0.056,0.009
		c0.124,0.019,0.248,0.037,0.373,0.055c0.018,0.003,0.036,0.006,0.054,0.008c0.044,0.007,0.089,0.013,0.133,0.019
		c0.022,0.004,0.044,0.006,0.066,0.01c0.04,0.005,0.081,0.011,0.12,0.016c0.024,0.003,0.047,0.007,0.07,0.01
		c0.04,0.005,0.079,0.011,0.118,0.015c0.023,0.004,0.047,0.007,0.07,0.01c0.04,0.005,0.081,0.01,0.121,0.015
		c0.022,0.002,0.044,0.005,0.066,0.009c0.044,0.004,0.089,0.011,0.134,0.015c0.014,0.002,0.028,0.004,0.043,0.005l0,0
		c0-1.05,0-2.102,0-3.152c-1.051-0.122-2.103-0.292-3.153-0.496C57.83,48.297,57.83,49.348,57.83,50.399z"/>
	<path d="M60.983,44.589c0,1.052,0,2.103,0,3.153c1.051,0.121,2.102,0.193,3.152,0.199c0-1.052,0-2.103,0-3.153
		C63.085,44.783,62.034,44.711,60.983,44.589z"/>
	<path d="M64.136,47.942c0,1.05,0,2.102,0,3.152l0,0c0.015,0,0.029,0,0.045,0c0.043,0,0.087,0,0.131,0c0.023,0,0.046,0,0.068,0
		c0.04,0,0.079,0,0.118,0c0.024,0,0.048,0,0.073,0c0.038-0.002,0.076-0.002,0.114-0.002c0.024-0.002,0.049-0.002,0.074-0.002
		c0.038,0,0.077-0.002,0.116-0.004c0.023,0,0.047,0,0.07,0c0.042-0.002,0.085-0.004,0.127-0.006c0.02,0,0.04,0,0.06-0.002
		c0.124-0.004,0.247-0.01,0.371-0.016c0.02,0,0.04-0.002,0.06-0.004c0.043-0.002,0.085-0.004,0.127-0.006
		c0.023-0.002,0.048-0.004,0.07-0.006c0.039-0.002,0.078-0.004,0.116-0.006c0.024-0.002,0.05-0.004,0.074-0.006
		c0.038-0.004,0.075-0.006,0.113-0.01c0.024,0,0.05-0.004,0.075-0.006c0.038-0.002,0.076-0.006,0.115-0.01
		c0.023-0.002,0.047-0.004,0.071-0.006c0.042-0.004,0.083-0.007,0.125-0.011c0.021-0.002,0.04-0.004,0.061-0.006
		c0.062-0.007,0.123-0.013,0.185-0.02c0.001,0,0.002,0,0.002,0c0.062-0.006,0.123-0.014,0.186-0.021
		c0.02-0.002,0.04-0.005,0.061-0.007c0.041-0.005,0.083-0.01,0.125-0.016c0.024-0.003,0.048-0.006,0.072-0.009
		c0.038-0.006,0.076-0.011,0.114-0.016c0.011-0.001,0.021-0.003,0.033-0.005l0,0c0-1.05,0-2.102,0-3.152
		C66.238,47.886,65.187,47.947,64.136,47.942z"/>
	<path d="M67.289,47.743c1.051-0.144,2.102-0.369,3.152-0.694c0-1.052,0-2.103,0-3.154c-1.051,0.326-2.102,0.552-3.152,0.695
		C67.289,45.641,67.289,46.692,67.289,47.743z"/>
	<path d="M70.441,50.201c0.008-0.002,0.016-0.005,0.023-0.008c0.041-0.012,0.082-0.024,0.123-0.038
		c0.021-0.007,0.042-0.013,0.063-0.021c0.124-0.039,0.247-0.08,0.372-0.123c0.02-0.007,0.039-0.015,0.059-0.021
		c0.043-0.015,0.085-0.028,0.127-0.044c0.023-0.009,0.047-0.017,0.07-0.025c0.039-0.015,0.077-0.028,0.116-0.043
		c0.024-0.009,0.049-0.019,0.074-0.026c0.038-0.015,0.076-0.028,0.114-0.043c0.024-0.01,0.049-0.02,0.073-0.029
		c0.039-0.014,0.077-0.029,0.117-0.045c0.023-0.009,0.047-0.019,0.069-0.027c0.043-0.017,0.086-0.034,0.129-0.052
		c0.019-0.007,0.038-0.016,0.058-0.022c0.124-0.052,0.248-0.104,0.372-0.157c0.02-0.009,0.039-0.018,0.059-0.026
		c0.043-0.018,0.085-0.037,0.128-0.056c0.022-0.011,0.047-0.021,0.069-0.031c0.04-0.018,0.078-0.035,0.117-0.053
		c0.024-0.012,0.049-0.022,0.074-0.035c0.037-0.017,0.075-0.034,0.113-0.052c0.024-0.013,0.05-0.023,0.074-0.036
		c0.039-0.019,0.077-0.036,0.115-0.056c0.024-0.011,0.048-0.022,0.072-0.034c0.041-0.021,0.083-0.041,0.125-0.062
		c0.02-0.011,0.04-0.02,0.061-0.03c0.062-0.031,0.124-0.063,0.186-0.095c0-1.051,0-2.102,0-3.152
		c-1.051,0.541-2.102,0.965-3.153,1.291C70.441,48.098,70.441,49.15,70.441,50.201L70.441,50.201z"/>
</g>
</svg>
